
<svg width="24px" height="26px" viewBox="0 0 24 26" version="1.1" xmlns="http://www.w3.org/2000/svg" xmlns:xlink="http://www.w3.org/1999/xlink">
    <!-- Generator: Sketch 51.2 (57519) - http://www.bohemiancoding.com/sketch -->
    <desc>Created with Sketch.</desc>
    <defs></defs>
    <g id="Page-1" stroke="none" stroke-width="1" fill="none" fill-rule="evenodd">
        <g id="notifier-todo" transform="translate(-3.000000, -1.000000)">
            <polygon id="Shape" points="0 0 30 0 30 30 0 30"></polygon>
            <path d="M23.75,3.75 L18.525,3.75 C18,2.3 16.625,1.25 15,1.25 C13.375,1.25 12,2.3 11.475,3.75 L6.25,3.75 C4.875,3.75 3.75,4.875 3.75,6.25 L3.75,23.75 C3.75,25.125 4.875,26.25 6.25,26.25 L23.75,26.25 C25.125,26.25 26.25,25.125 26.25,23.75 L26.25,6.25 C26.25,4.875 25.125,3.75 23.75,3.75 Z M15,3.75 C15.6875,3.75 16.25,4.3125 16.25,5 C16.25,5.6875 15.6875,6.25 15,6.25 C14.3125,6.25 13.75,5.6875 13.75,5 C13.75,4.3125 14.3125,3.75 15,3.75 Z M17.5,21.25 L8.75,21.25 L8.75,18.75 L17.5,18.75 L17.5,21.25 Z M21.25,16.25 L8.75,16.25 L8.75,13.75 L21.25,13.75 L21.25,16.25 Z M21.25,11.25 L8.75,11.25 L8.75,8.75 L21.25,8.75 L21.25,11.25 Z" id="Shape" fill="#8B572A" fill-rule="nonzero"></path>
        </g>
    </g>
</svg>