
<svg width="26px" height="25px" viewBox="0 0 26 25" version="1.1" xmlns="http://www.w3.org/2000/svg" xmlns:xlink="http://www.w3.org/1999/xlink">
    <!-- Generator: Sketch 51.2 (57519) - http://www.bohemiancoding.com/sketch -->
    <desc>Created with Sketch.</desc>
    <defs></defs>
    <g id="Page-1" stroke="none" stroke-width="1" fill="none" fill-rule="evenodd">
        <g id="notifier-reminder" transform="translate(-2.000000, -3.000000)">
            <polygon id="Shape" points="0 0 30 0 30 30 0 30"></polygon>
            <path d="M9.475,5.1 L7.6875,3.3125 C4.6875,5.6 2.7125,9.125 2.5375,13.125 L5.0375,13.125 C5.225,9.8125 6.925,6.9125 9.475,5.1 Z M24.9625,13.125 L27.4625,13.125 C27.275,9.125 25.3,5.6 22.3125,3.3125 L20.5375,5.1 C23.0625,6.9125 24.775,9.8125 24.9625,13.125 Z M22.5,13.75 C22.5,9.9125 20.45,6.7 16.875,5.85 L16.875,5 C16.875,3.9625 16.0375,3.125 15,3.125 C13.9625,3.125 13.125,3.9625 13.125,5 L13.125,5.85 C9.5375,6.7 7.5,9.9 7.5,13.75 L7.5,20 L5,22.5 L5,23.75 L25,23.75 L25,22.5 L22.5,20 L22.5,13.75 Z M15,27.5 C15.175,27.5 15.3375,27.4875 15.5,27.45 C16.3125,27.275 16.975,26.725 17.3,25.975 C17.425,25.675 17.4875,25.35 17.4875,25 L12.4875,25 C12.5,26.375 13.6125,27.5 15,27.5 Z" id="Shape" fill="#1BA3A8" fill-rule="nonzero"></path>
        </g>
    </g>
</svg>